<?xml version="1.0" encoding="UTF-8"?>
<svg width="36px" height="36px" viewBox="0 0 36 36" version="1.1" xmlns="http://www.w3.org/2000/svg" xmlns:xlink="http://www.w3.org/1999/xlink">
    <!-- Generator: Sketch 64 (93537) - https://sketch.com -->
    <title>Phone</title>
    <desc>Created with Sketch.</desc>
    <g id="Page-1" stroke="none" stroke-width="1" fill="none" fill-rule="evenodd">
        <g id="Homepage" transform="translate(-327.000000, -19.000000)">
            <g id="Phone" transform="translate(327.000000, 19.000000)">
                <rect id="Rectangle-Copy-15" fill="#475FD1" x="0" y="0" width="36" height="36" rx="18"></rect>
                <g id="Group-4-Copy" transform="translate(9.000000, 9.000000)">
                    <path d="M1.8,0 L5.4,0 C5.82901292,0 6.19838625,0.302813701 6.28252261,0.723495478 L7.18252261,5.22349548 C7.24153746,5.51856973 7.14917717,5.82361504 6.9363961,6.0363961 L4.67331749,8.29947472 C5.73323577,10.489192 7.51080801,12.2667642 9.70052528,13.3266825 L11.9636039,11.0636039 C12.176385,10.8508228 12.4814303,10.7584625 12.7765045,10.8174774 L17.2765045,11.7174774 C17.6971863,11.8016137 18,12.1709871 18,12.6 L18,16.2 C18,17.1941222 17.1941066,18 16.2,18 L14.4,18 C6.4470996,18 1.42108547e-14,11.5529004 1.42108547e-14,3.6 L1.42108547e-14,1.8 C1.42108547e-14,0.80588745 0.80588745,0 1.8,0 L1.8,0 Z" id="primary" fill="#D6DBF5"></path>
                    <path d="M10.8,0 C14.7764502,0 18,3.2235498 18,7.2 C18,7.69705627 17.5970563,8.1 17.1,8.1 C16.6029437,8.1 16.2,7.69705627 16.2,7.2 C16.2,4.21766235 13.7823376,1.8 10.8,1.8 C10.3029437,1.8 9.9,1.39705627 9.9,0.9 C9.9,0.402943725 10.3029437,0 10.8,0 Z M10.8,3.6 C12.7882251,3.6 14.4,5.2117749 14.4,7.2 C14.4,7.69705627 13.9970563,8.1 13.5,8.1 C13.0029437,8.1 12.6,7.69705627 12.6,7.2 C12.6,6.20588745 11.7941125,5.4 10.8,5.4 C10.3029437,5.4 9.9,4.99705627 9.9,4.5 C9.9,4.00294373 10.3029437,3.6 10.8,3.6 Z" id="secondary" fill="#8594E0"></path>
                </g>
            </g>
        </g>
    </g>
</svg>