<?xml version="1.0" encoding="UTF-8"?>
<svg width="60px" height="60px" viewBox="0 0 60 60" version="1.1" xmlns="http://www.w3.org/2000/svg" xmlns:xlink="http://www.w3.org/1999/xlink">
    <!-- Generator: Sketch 63.1 (92452) - https://sketch.com -->
    <title>Automated</title>
    <desc>Created with Sketch.</desc>
    <g id="Page-1" stroke="none" stroke-width="1" fill="none" fill-rule="evenodd">
        <g id="Homepage" transform="translate(-300.000000, -1740.000000)">
            <g id="Automated" transform="translate(300.000000, 1740.000000)">
                <circle id="Oval" fill="#E9ECFC" cx="30" cy="30" r="30"></circle>
                <g transform="translate(18.000000, 18.000000)">
                    <path d="M14.7788559,4.40985289 C15.2465245,4.40985289 15.6120669,4.65719917 15.8120586,4.99877103 C16.623416,4.76731294 17.5336624,4.97054687 18.1729685,5.60985289 C18.8125374,6.24942186 19.0156755,7.16015423 18.7823827,7.9719755 C19.1246653,8.16934207 19.3729685,8.53539316 19.3729685,9.00396544 L19.3729685,17.4892468 C19.3729685,17.8075066 19.2465402,18.1127313 19.0214966,18.3377749 L13.9303278,23.4289438 C13.1743699,24.1849016 11.8817996,23.6495015 11.8817996,22.5804156 L11.8814522,18.2885904 C11.6913482,18.366445 11.4999175,18.4412609 11.30722,18.5130119 C10.7944139,18.7039556 10.2173799,18.5238026 9.90430161,18.0750136 C9.33922404,17.2649908 8.70013358,16.5016933 7.9906308,15.7921905 C7.28112803,15.0826878 6.51783058,14.4435973 5.70780771,13.8785197 C5.25901876,13.5654415 5.07886579,12.9884074 5.26980941,12.4756014 C5.34156045,12.2829038 5.41637635,12.0914732 5.49423093,11.9013692 L1.20240571,11.9010217 C0.133319885,11.9010217 -0.402080265,10.6084514 0.353877568,9.85249357 L5.44504639,4.76132475 C5.67009005,4.53628109 5.97531474,4.40985289 6.29357453,4.40985289 L14.7788559,4.40985289 Z M14.1572738,7.92806476 L11.5766651,10.5099156 C11.9565669,10.6917447 12.3002554,10.91359 12.5847434,11.198078 C12.8692313,11.4825659 13.0910766,11.8262545 13.2729057,12.2061563 L15.855494,9.62574423 C15.4610883,9.52061379 15.0882447,9.31335419 14.7788559,9.00396544 C14.46966,8.69476952 14.262466,8.32219775 14.1572738,7.92806476 Z M22.537722,0.000866598277 C23.235469,-0.0253638266 23.8081852,0.547352291 23.7819547,1.24509935 C23.74306,2.27972613 23.6217115,3.30370365 23.4205847,4.3082888 C22.8528565,3.5827544 21.035022,4.08368131 20.367081,3.41574034 C19.69914,2.74779937 20.2000669,0.929964807 19.4745325,0.362236653 C20.4791177,0.161109876 21.5030952,0.0397613524 22.537722,0.000866598277 Z" id="Combined-Shape" fill="#334DCC"></path>
                    <path d="M7.00335472,8.96901788 C7.76203404,7.76417895 8.65937344,6.63816653 9.68675492,5.61078505 C12.4095973,2.88794264 15.8132731,1.09525297 19.4745325,0.362236653 C20.2000669,0.929964807 20.89914,1.54779937 21.567081,2.21574034 C22.235022,2.88368131 22.8528565,3.5827544 23.4205847,4.3082888 C22.6875684,7.96954823 20.8948787,11.373224 18.1720363,14.0960664 C17.1446548,15.1234479 16.0186424,16.0207873 14.8138035,16.7794231 C13.8744144,15.2179748 12.7314174,13.744752 11.3847434,12.398078 C10.0380693,11.0514039 8.56484656,9.90840693 7.00335472,8.96908697 L7.00335472,8.96901788 Z M5.97159368,15.5621199 C6.37484183,15.9042031 6.76527676,16.2638928 7.14210267,16.6407187 C7.51892858,17.0175446 7.87861824,17.4079795 8.22070148,17.8112277 C8.77909599,18.4694638 8.4807268,19.4842809 7.65492724,19.7355464 C6.70883745,20.0234124 5.74189786,20.2375653 4.7630485,20.3765583 C3.97182891,20.4889085 3.29391284,19.8109924 3.40626308,19.0197728 C3.54525606,18.0409235 3.75940894,17.0739839 4.04727497,16.1278941 C4.29854039,15.3020945 5.31335754,15.0037254 5.97159368,15.5621199 Z M14.7788559,9.00396544 C15.7161142,9.94122374 17.2357102,9.94122374 18.1729685,9.00396544 C19.1102268,8.06670714 19.1102268,6.54711119 18.1729685,5.60985289 C17.2357102,4.67259459 15.7161142,4.67259459 14.7788559,5.60985289 C13.8415976,6.54711119 13.8415976,8.06670714 14.7788559,9.00396544 Z" id="Shape" fill="#A3B1F5"></path>
                </g>
            </g>
        </g>
    </g>
</svg>