<?xml version="1.0" encoding="UTF-8"?>
<svg width="60px" height="60px" viewBox="0 0 60 60" version="1.1" xmlns="http://www.w3.org/2000/svg" xmlns:xlink="http://www.w3.org/1999/xlink">
    <!-- Generator: Sketch 63.1 (92452) - https://sketch.com -->
    <title>Customer Support</title>
    <desc>Created with Sketch.</desc>
    <g id="Page-1" stroke="none" stroke-width="1" fill="none" fill-rule="evenodd">
        <g id="Homepage" transform="translate(-630.000000, -1914.000000)">
            <g id="Customer-Support" transform="translate(630.000000, 1914.000000)">
                <circle id="Oval-Copy-4" fill="#E9ECFC" cx="30" cy="30" r="30"></circle>
                <g id="Group-2" transform="translate(18.000000, 18.000000)">
                    <path d="M5.46476809,4.96771181 L6.84852814,6.35147186 C7.60448597,7.1074297 7.06908582,8.4 6,8.4 L1.2,8.4 C0.537258301,8.4 0,7.8627417 0,7.2 L0,2.4 C0,1.33091418 1.2925703,0.795514029 2.04852814,1.55147186 L3.76681658,3.2697603 C8.46964599,-1.17009833 15.8821172,-1.08844556 20.4852814,3.51471863 C25.1715729,8.20101013 25.1715729,15.7989899 20.4852814,20.4852814 C15.7989899,25.1715729 8.20101013,25.1715729 3.51471863,20.4852814 C1.23400955,18.2045723 -0.0004046985,15.1599435 0,11.9984548 C0,11.3357131 0.537412044,10.7985236 1.20015374,10.7986085 C1.86289543,10.7986933 2.40008494,11.3360204 2.40000008,11.9987621 C2.39967599,14.5299364 3.38585595,16.9623061 5.2117749,18.7882251 C8.9608081,22.5372583 15.0391919,22.5372583 18.7882251,18.7882251 C22.5372583,15.0391919 22.5372583,8.9608081 18.7882251,5.2117749 C15.1223927,1.5459425 9.22945118,1.46458814 5.46476809,4.96771181 Z" id="primary" fill="#A3B1F5"></path>
                    <path d="M16.4485281,14.7514719 C16.9171573,15.220101 16.9171573,15.979899 16.4485281,16.4485281 C15.979899,16.9171573 15.220101,16.9171573 14.7514719,16.4485281 L11.1514719,12.8485281 C10.9264282,12.6234845 10.8,12.3182598 10.8,12 L10.8,6 C10.8,5.3372583 11.3372583,4.8 12,4.8 C12.6627417,4.8 13.2,5.3372583 13.2,6 L13.2,11.5029437 L16.4485281,14.7514719 Z" id="secondary" fill="#334DCC"></path>
                </g>
            </g>
        </g>
    </g>
</svg>