<?xml version="1.0" encoding="UTF-8"?>
<svg width="60px" height="60px" viewBox="0 0 60 60" version="1.1" xmlns="http://www.w3.org/2000/svg" xmlns:xlink="http://www.w3.org/1999/xlink">
    <!-- Generator: Sketch 63.1 (92452) - https://sketch.com -->
    <title>Fast Delivery</title>
    <desc>Created with Sketch.</desc>
    <g id="Page-1" stroke="none" stroke-width="1" fill="none" fill-rule="evenodd">
        <g id="Homepage" transform="translate(-300.000000, -1914.000000)">
            <g id="Fast-Delivery" transform="translate(300.000000, 1914.000000)">
                <circle id="Oval-Copy-3" fill="#E9ECFC" cx="30" cy="30" r="30"></circle>
                <g id="Group-8" transform="translate(18.000000, 21.000000)">
                    <path d="M6,13.2 C7.3254834,13.2 8.4,14.2745166 8.4,15.6 C8.4,16.9254834 7.3254834,18 6,18 C4.6745166,18 3.6,16.9254834 3.6,15.6 C3.6,14.2745166 4.6745166,13.2 6,13.2 Z M18,13.2 C19.3254834,13.2 20.4,14.2745166 20.4,15.6 C20.4,16.9254834 19.3254834,18 18,18 C16.6745166,18 15.6,16.9254834 15.6,15.6 C15.6,14.2745166 16.6745166,13.2 18,13.2 Z M20.8,3.6 C21.3165165,3.6 21.7750831,3.93051611 21.93842,4.42052668 L23.93842,10.4205267 C23.9792065,10.5428864 24,10.6710215 24,10.8 L24,14.4 C24,15.0627417 23.4627417,15.6 22.8,15.6 L21.6,15.6 C21.6,13.6117749 19.9882251,12 18,12 C16.0117749,12 14.4,13.6117749 14.4,15.6 C13.7372583,15.6 13.2,15.0627417 13.2,14.4 L13.2,4.8 C13.2,4.1372583 13.7372583,3.6 14.4,3.6 L20.8,3.6 Z M19.9350889,6 L16.8,6 L16.8,9.6 L21.1350889,9.6 L19.9350889,6 Z" id="secondary" fill="#334DCC"></path>
                    <path d="M9.6,15.6 C9.6,13.6117749 7.9882251,12 6,12 C4.0117749,12 2.4,13.6117749 2.4,15.6 L1.2,15.6 C0.5372583,15.6 0,15.0627417 0,14.4 L0,1.2 C0,0.5372583 0.5372583,0 1.2,0 L13.2,0 C13.8627417,0 14.4,0.5372583 14.4,1.2 L14.4,15.6 L9.6,15.6 Z" id="primary" fill="#A3B1F5"></path>
                </g>
            </g>
        </g>
    </g>
</svg>