<?xml version="1.0" encoding="UTF-8"?>
<svg width="60px" height="60px" viewBox="0 0 60 60" version="1.1" xmlns="http://www.w3.org/2000/svg" xmlns:xlink="http://www.w3.org/1999/xlink">
    <!-- Generator: Sketch 63.1 (92452) - https://sketch.com -->
    <title>Product Category</title>
    <desc>Created with Sketch.</desc>
    <g id="Page-1" stroke="none" stroke-width="1" fill="none" fill-rule="evenodd">
        <g id="Homepage" transform="translate(-960.000000, -1914.000000)">
            <g id="Product-Category" transform="translate(960.000000, 1914.000000)">
                <circle id="Oval-Copy-5" fill="#E9ECFC" cx="30" cy="30" r="30"></circle>
                <g id="Group-4" transform="translate(18.000000, 18.000000)">
                    <path d="M0.712633841,4.90342614 L11.5126338,0.103426142 C11.8229123,-0.0344753806 12.1770877,-0.0344753806 12.4873662,0.103426142 L23.2873662,4.90342614 C24.2375446,5.32572768 24.2375446,6.67427232 23.2873662,7.09657386 L12.4873662,11.8965739 C12.1770877,12.0344754 11.8229123,12.0344754 11.5126338,11.8965739 L0.712633841,7.09657386 C-0.237544614,6.67427232 -0.237544614,5.32572768 0.712633841,4.90342614 Z" id="primary" fill="#334DCC"></path>
                    <path d="M21.7046573,16.2 L23.2873662,16.9034261 C24.2375446,17.3257277 24.2375446,18.6742723 23.2873662,19.0965739 L12.4873662,23.8965739 C12.1770877,24.0344754 11.8229123,24.0344754 11.5126338,23.8965739 L0.712633841,19.0965739 C-0.237544614,18.6742723 -0.237544614,17.3257277 0.712633841,16.9034261 L2.29534266,16.2 L11.5126338,20.2965739 C11.8229123,20.4344754 12.1770877,20.4344754 12.4873662,20.2965739 L21.7046573,16.2 Z M21.7046573,10.2 L23.2873662,10.9034261 C24.2375446,11.3257277 24.2375446,12.6742723 23.2873662,13.0965739 L12.4873662,17.8965739 C12.1770877,18.0344754 11.8229123,18.0344754 11.5126338,17.8965739 L0.712633841,13.0965739 C-0.237544614,12.6742723 -0.237544614,11.3257277 0.712633841,10.9034261 L2.29534266,10.2 L11.5126338,14.2965739 C11.8229123,14.4344754 12.1770877,14.4344754 12.4873662,14.2965739 L21.7046573,10.2 Z" id="secondary" fill="#A3B1F5"></path>
                </g>
            </g>
        </g>
    </g>
</svg>