<?xml version="1.0" encoding="UTF-8"?>
<svg width="60px" height="60px" viewBox="0 0 60 60" version="1.1" xmlns="http://www.w3.org/2000/svg" xmlns:xlink="http://www.w3.org/1999/xlink">
    <!-- Generator: Sketch 63.1 (92452) - https://sketch.com -->
    <title>Quality</title>
    <desc>Created with Sketch.</desc>
    <g id="Page-1" stroke="none" stroke-width="1" fill="none" fill-rule="evenodd">
        <g id="Homepage" transform="translate(-630.000000, -1740.000000)">
            <g id="Quality" transform="translate(630.000000, 1740.000000)">
                <circle id="Oval-Copy" fill="#E9ECFC" cx="30" cy="30" r="30"></circle>
                <g id="Group-7" transform="translate(18.000000, 18.000000)">
                    <circle id="primary" fill="#A3B1F5" cx="12" cy="12" r="12"></circle>
                    <path d="M9.03169784,17.9162597 C8.15134498,18.3790886 7.12242606,17.6315352 7.2905585,16.6512479 L7.85745377,13.3459949 L5.45604687,11.0052017 C4.74382645,10.3109583 5.13683851,9.10139161 6.12110292,8.95836962 L9.43976563,8.4761397 L10.9239167,5.46892115 C11.3640931,4.57702628 12.6359069,4.57702628 13.0760833,5.46892115 L14.5602344,8.4761397 L17.8788971,8.95836962 C18.8631615,9.10139161 19.2561735,10.3109583 18.5439531,11.0052017 L16.1425462,13.3459949 L16.7094415,16.6512479 C16.8775739,17.6315352 15.848655,18.3790886 14.9683022,17.9162597 L12,16.3557309 L9.03169784,17.9162597 Z" id="secondary" fill="#334DCC"></path>
                </g>
            </g>
        </g>
    </g>
</svg>