<?xml version="1.0" encoding="UTF-8"?>
<svg width="2593px" height="2003px" viewBox="0 0 2593 2003" version="1.1" xmlns="http://www.w3.org/2000/svg" xmlns:xlink="http://www.w3.org/1999/xlink">
    <!-- Generator: Sketch 64 (93537) - https://sketch.com -->
    <title>Group</title>
    <desc>Created with Sketch.</desc>
    <defs>
        <linearGradient x1="50%" y1="0%" x2="50%" y2="100%" id="linearGradient-1">
            <stop stop-color="#F5B737" offset="0%"></stop>
            <stop stop-color="#FACA44" offset="100%"></stop>
        </linearGradient>
    </defs>
    <g id="Page-1" stroke="none" stroke-width="1" fill="none" fill-rule="evenodd">
        <g id="Desktop-HD" transform="translate(-405.000000, -311.000000)">
            <g id="Group" transform="translate(405.000000, 311.000000)">
                <path d="M1157.07839,60.2536502 C1192.25848,62.9767759 1198.36018,76.1663833 1175.38348,99.8224726 L1058.36626,230.934941 C1039.76106,256.311647 1017.77299,269 992.402064,269 C967.031138,269 961.443904,250.232932 975.640362,212.698797 C991.854186,167.273247 1007.19381,136.808127 1021.65924,121.303439 C1073.04993,66.2206035 1132.30068,58.3357246 1157.07839,60.2536502 Z" id="Path-37" fill="#6171FE"></path>
                <path d="M1156.21812,311.367247 C1229.13223,255.252955 1333.99163,229.372609 1470.7963,233.72621 C1549.33998,236.225744 1616.55734,231.945542 1675.64353,214.336604 C1764.55723,187.83844 1796.20298,132.264223 1814.53664,94.12297 C1832.8703,55.9817175 1803.849,9.41351215 1745.66218,4.2042193 C1687.47535,-1.00507355 1684.22909,-5.6342923 1569.59923,18.0441047 C1522.60772,27.7508577 1469.8881,38.4525146 1402.22334,68.0851633 C1301.83615,112.048049 1203.47821,176.331822 1164.71365,210.842535 C1099.82032,268.614775 1065.8302,320.51976 1078.69023,335.765472 C1087.26359,345.92928 1113.10622,337.796539 1156.21812,311.367247 Z" id="Path-38" fill="#6171FE"></path>
                <path d="M717.498261,759.775394 C774.01538,770.61755 893.898559,655.134988 932.037844,600.97807 C970.17713,546.821152 1038.32842,442.253142 1152.58476,393.755898 C1266.8411,345.258655 1388.07075,308 1422.96597,308 C1457.86119,308 1484.54054,325.099235 1489.79118,342.993331 C1495.04183,360.887426 1492.98001,387.387803 1460.59884,419.511 C1403.62736,470.657055 1317.17596,566.171539 1310.15054,699.877065 C1310.98869,729.849642 1318.27926,757.140695 1317.17596,779.723922 C1315.28934,818.340939 1302.77959,850.952139 1279.64673,877.55752 C1256.75621,906.405548 1233.73135,929.162711 1210.57214,945.82901 C1197.48597,955.246348 1124.24126,1008.20813 992.404186,1087.77198 C923.319847,1129.46448 780.705483,1209.96314 564.561092,1329.26798 L325.565144,1455.94708 C189.379391,1549.85127 88.4614115,1560.09634 22.8112069,1486.68229 C-17.9390063,1424.71765 -3.97627231,1360.10214 63.7718505,1302.20318 C77.9582877,1290.07915 105.516802,1254.53381 146.447392,1195.56716 C201.835921,1081.41056 237.736449,990.05484 254.148979,921.5 C266.347265,870.547979 290.773696,781.220114 339.362126,692.269787 C388.835715,601.699009 470.530389,509.056801 555.830669,454.682846 C724.905076,346.907771 795.182238,349.322333 818.087833,371.539116 C840.993428,393.755898 829.345962,432.190028 812.760951,462.006096 C797.88692,488.74621 717.382207,575.919515 689.483141,654.663594 C669.897493,709.94336 694.187088,755.303414 717.498261,759.775394 Z" id="Path-39" fill="#6275F5"></path>
                <path d="" id="Path" stroke="#979797"></path>
                <path d="M1593.35112,903 L1595,906.524549 L1508.69213,946.900297 C831.913537,1263.4699 483.546694,1425.57207 462.700083,1433.61753 C442.029545,1441.59503 432.205213,1455.70383 432.928048,1476.29314 L432.95318,1476.91904 L432.955161,1477.00683 L432.955161,1567 L429.064098,1567 L429.063507,1477.03581 L429.038967,1476.41757 C428.269588,1454.36718 438.89674,1438.86471 460.630356,1430.24888 L461.29914,1429.98729 C482.655942,1421.74493 853.040097,1249.3441 1571.47387,913.235227 L1593.35112,903 Z" id="Path-18" fill="#B8C1FF" fill-rule="nonzero"></path>
                <path d="M166.223486,1312.17961 L1383.88754,775 L1617,894.195133 L1617,1029.92042 L1613.10724,1029.92042 L1613.10673,896.576585 L1383.76315,779.308485 L167.393573,1315.91866 L167.174525,1315.96019 C149.151151,1319.37736 140.075201,1333.53081 139.895484,1359.08539 L139.892761,1359.86326 L139.892071,1617.05456 L429.051815,1778.49975 L433.849254,1648.15705 L433.801118,1647.39886 C432.120651,1619.26707 442.481495,1599.58607 464.787821,1588.74178 L465.474399,1588.41258 L476.773077,1583.05681 C498.308408,1572.82952 531.147459,1557.14566 575.289124,1536.00575 L589.413579,1529.24 L591.0955,1532.75076 L531.900396,1561.08297 C502.746969,1575.01828 481.159885,1585.30113 467.138538,1591.9318 C445.859314,1601.99471 436.075315,1620.27832 437.68775,1647.1805 L437.747027,1648.10015 L432.708965,1785 L136,1619.34066 L136,1359.86326 C136,1332.39598 145.965058,1316.30477 165.843983,1312.2545 L166.223486,1312.17961 Z" id="Path-19" fill="#B8C1FF" fill-rule="nonzero"></path>
                <path d="M500.042316,1489.44699 C515.83419,1482.73865 854.714885,1326.35143 1516.6844,1020.28534 C1543.07535,1008.43912 1565.69174,1006.82588 1584.53357,1015.44564 C1603.37539,1024.06539 1619.90462,1031.15249 1634.12123,1036.70693 C1663.55627,1051.71573 1676.03525,1078.74941 1671.55816,1117.80798 C1664.84254,1176.39583 1661.51985,1181.45033 1658.24702,1219.50596 C1654.20426,1266.51403 1704.08698,1284.57153 1732.56441,1288.19076 C1776.80516,1293.81335 1806.17625,1304.25265 1836.36246,1315.52506 C1881.81344,1332.49779 1989.89473,1397.42357 1996.58247,1424.2686 C2003.2702,1451.11364 1927.69782,1490.12027 1907.48307,1502.07338 C1894.00656,1510.04213 1674.68591,1620.02356 1249.52112,1832.01767 L963.855276,1977.68506 C932.76453,2000.83198 901.185876,2002.03862 869.119314,1981.30499 C821.019472,1950.20454 736.986801,1924.36878 713.984156,1919.21201 C690.981512,1914.05524 637.073927,1897.75137 594.79014,1832.01767 C552.506353,1766.28398 613.401742,1599.45229 541.997574,1545.95199 C470.593406,1492.45169 507.280202,1515.74445 497.483484,1510.83909 C487.686765,1505.93373 476.354506,1499.5095 500.042316,1489.44699 Z" id="Path-10" fill="#D7F1F3"></path>
                <path d="M1364,1089.64215 C1409.88402,1112.6268 1437.13227,1147.9937 1445.74474,1195.74287 C1458.66345,1267.36663 1451.488,1388.00528 1451.488,1395.18096 C1451.488,1402.35665 1440.21101,1455.59218 1523.26667,1490.10815 C1606.32233,1524.62413 1695.69513,1534.24649 1736.47373,1588 C1764.53689,1575.70754 1801.71231,1557.19757 1848,1532.47009 C1817.87214,1500.15131 1769.79963,1475.96641 1703.78246,1459.91541 C1604.75671,1435.83891 1556.95786,1391.71227 1562.5674,1333.67509 C1568.17694,1275.63791 1569.48916,1184.45373 1550.90214,1121.77926 C1538.51079,1079.99628 1514.38266,1052.06986 1478.51777,1038 L1364,1089.64215 Z" id="Path-34" fill="#F9344B"></path>
                <path d="M1064,1229.51135 L1138.82438,1194 C1181.99145,1216.41114 1209.23711,1256.36515 1220.56136,1313.86203 C1237.54774,1400.10734 1224.67444,1492.98389 1224.67444,1511.21135 C1224.67444,1519.29166 1227.57406,1547.58299 1246.04748,1567.17348 C1269.24619,1591.775 1320.34046,1611.99337 1351.97951,1620.87004 C1377.13456,1627.92756 1414.73072,1637.52862 1465.1633,1659.53412 C1479.74896,1665.89836 1496.3612,1679.22135 1515,1699.50311 L1444.75529,1733 C1420.7901,1706.37523 1389.02661,1686.70994 1349.46481,1674.00414 C1290.12212,1654.94543 1253.68151,1643.50085 1233.21354,1635.89234 C1212.74556,1628.28384 1145.97121,1598.23549 1152.70205,1527.71267 C1159.43289,1457.18985 1160.6284,1438.71713 1149.72639,1349.72721 C1142.45838,1290.4006 1113.88292,1250.32864 1064,1229.51135 Z" id="Path-35" fill="#00A4A8"></path>
                <path d="M662,1414.25213 L818.674024,1342 C859.406963,1354.64 887.681887,1388.4316 903.498798,1443.3748 C927.224163,1525.7896 916.309346,1602.68857 916.309346,1611.95722 C916.309346,1618.5782 903.498798,1662.20732 921.469141,1702.3236 C928.716442,1718.50218 945.34269,1732.27575 965.404753,1745.07579 C975.267624,1751.36852 997.118911,1763.7995 1021.86267,1771.83956 C1063.73419,1785.44497 1121.35514,1799.408 1164.41701,1819.3282 C1181.06981,1827.0317 1195.93081,1838.89607 1209,1854.9213 L1056.51298,1931 C1029.44117,1905.33398 1003.29279,1887.63963 978.06785,1877.91696 C940.230434,1863.33295 872.258994,1842.23342 854.18501,1836.54147 C836.111025,1830.84953 760.041545,1795.87208 757.499614,1753.80934 C754.957683,1711.74661 761.38623,1649.46446 761.38623,1640.90715 C761.38623,1632.34984 755.509746,1516.39052 733.437181,1475.43735 C718.722138,1448.13524 694.909744,1427.74017 662,1414.25213 Z" id="Path-36" fill="#F7BA35"></path>
                <polygon id="Path-20" fill="#B8C1FF" fill-rule="nonzero" points="1397 707.538021 1695.4865 610 1783.04153 645.348032 1871 776.664499 1871 879.068218 1867.10854 879.068218 1867.10808 777.845888 1780.47489 648.507465 1695.34614 614.138816 1409.14032 707.663593 1519.36381 746.229029 1623.83384 878.392314 1623.83384 1031 1619.94238 1031 1619.94214 879.744171 1517.00997 749.527235"></polygon>
                <polygon id="Path-21" fill="#B8C1FF" fill-rule="nonzero" points="1841.48964 785 1843 788.572321 1622.51036 881 1621 877.427679"></polygon>
                <polygon id="Path-22" fill="#B8C1FF" fill-rule="nonzero" points="1740.72637 669 1742 672.686685 1519.27363 750 1518 746.313315"></polygon>
                <path d="M1754.85172,688.031081 L1723.39993,699.344929 C1644.58355,727.668532 1598.21333,744.097211 1584.36477,748.604529 L1583.46126,748.896478 C1568.20937,753.784676 1564.14585,763.966867 1571.69618,778.231187 L1572.01012,778.81504 L1576.89821,784.958658 C1596.99539,810.252696 1608.99665,825.814052 1612.83258,831.545973 L1613.07366,831.909657 C1617.46584,838.604477 1625.46706,840.504629 1636.63927,837.837411 L1636.79212,837.800921 L1657.49711,829.146399 C1745.57581,792.284646 1794.16758,771.326578 1803.56947,766.136388 C1814.44477,760.132823 1816.798,749.935376 1810.7126,736.358276 L1810.48793,735.863633 L1808.92791,733.169194 C1796.92367,712.539883 1787.67347,699.098354 1781.07959,692.757651 C1773.82788,685.784377 1764.96852,684.206261 1754.85172,688.031081 Z M1778.38236,695.560244 L1778.57896,695.750757 C1785.03153,702.050766 1794.43836,715.856223 1806.69551,737.074624 L1807.02508,737.645756 L1807.31197,738.285308 C1812.44687,749.957174 1810.54545,757.84285 1801.68864,762.732139 L1801.37755,762.901828 C1791.29886,768.339074 1741.67573,789.71498 1652.80614,826.893301 L1635.58567,834.089605 L1635.73549,834.054901 C1626.13232,836.347531 1619.8499,834.919082 1616.46818,829.987511 L1615.95341,829.215895 C1611.67896,822.878471 1598.57017,805.932914 1576.54789,778.268936 L1575.26946,776.66383 L1575.34837,776.810509 C1568.70242,764.562965 1571.53126,756.938846 1584.26035,752.726288 L1586.0489,752.145705 C1602.38361,746.795284 1659.07427,726.648741 1756.1991,691.679182 C1764.97469,688.361692 1772.24272,689.656347 1778.38236,695.560244 Z" id="Path-23" fill="#B8C1FF" fill-rule="nonzero"></path>
                <path d="M1670,844 C1670.77285,816.965504 1671.56263,798.724504 1672.36935,789.276999 C1673.57943,775.105741 1677.37377,743.201617 1684.01694,744.595492 C1688.44572,745.524742 1689.93107,753.459497 1688.47298,768.399756 C1689.98713,769.929212 1691.11701,769.476824 1691.8626,767.042593 C1692.291,765.643945 1692.40797,760.041026 1693.76302,753.578114 C1695.9455,743.168771 1700.04462,730.483592 1704.12079,729.203731 C1710.72775,727.129234 1706.17622,741.581063 1709.18565,741.581063 C1712.19508,741.581063 1712.81617,729.658573 1714.74342,729.658573 C1716.67067,729.658573 1719.0392,726.339256 1720.6283,735.130226 C1722.21741,743.921196 1719.21786,765.685429 1722.41242,767.042593 C1723.99964,767.716901 1724.74208,761.865704 1726.937,755.952593 C1729.15975,749.964529 1732.84825,743.913494 1736.58763,744.595492 C1740.40069,745.290929 1739.81272,755.955176 1738.30197,764.331243 C1736.86814,772.280777 1734.54181,778.058789 1736.58763,778.99573 C1740.78903,780.919883 1740.33156,769.006205 1745.44636,770.196127 C1750.56116,771.386049 1750.72605,776.035338 1749.04993,786.279253 C1747.3738,796.523168 1747.19426,830.889198 1748.12209,830.889198 C1748.74065,830.889198 1722.69995,835.259465 1670,844 Z" id="Path-7" fill="#EF5745"></path>
                <path d="M2082.88491,1809.35408 C2080.09119,1847.01951 2083.91246,1874.20137 2094.34871,1890.89967 C2104.78496,1907.59798 2130.83736,1894.84341 2172.50589,1852.63597 C2172.08878,1816.06828 2172.57175,1796.69058 2173.9548,1794.50287 C2175.33785,1792.31516 2144.98122,1797.26557 2082.88491,1809.35408 Z" id="Path-8" fill="#F7E9C5"></path>
                <path d="M2376.16781,1749.5796 C2375.10878,1757.47744 2379.06222,1763.91236 2388.02813,1768.88433 C2396.99404,1773.85631 2416.64959,1786.89487 2446.9948,1808 L2455,1710.63198 C2453.05566,1699.3574 2445.98624,1694.59849 2433.79175,1696.35524 C2421.59725,1698.112 2402.38927,1715.85345 2376.16781,1749.5796 Z" id="Path-9" fill="#F7E9C5"></path>
                <path d="M2037.29809,561.482983 C2026.07098,567.486462 2019.55484,570.488201 2017.74966,570.488201 C2015.04189,570.488201 2009.09079,571.216869 2007.50676,568.006767 C2005.92274,564.796665 2008.18155,556.441755 2012.4797,552.553875 C2015.34512,549.961955 2019.85988,546.2985 2026.02397,541.56351 C2016.52646,540.863965 2011.7777,538.955378 2011.7777,535.837748 C2011.7777,531.161304 2013.49777,523.075253 2024.77189,515.974119 C2036.04602,508.872985 2042.32952,505.471935 2051.57021,505.471935 C2058.61122,505.471935 2111.20477,503.188084 2142.51396,508.668636 C2152.29528,510.380819 2158.51858,513.412638 2162.52757,516.787326 C2179.36901,530.964106 2168.11993,533.903392 2170.09345,546.925526 C2172.06696,559.94766 2178,573.912327 2178,581.104112 C2178,585.898635 2176.30418,590.863931 2172.91254,596 L2037.29809,561.482983 Z" id="Path-3" fill="#003581"></path>
                <path d="M2144.82289,1541.06941 C2148.05638,1538.4285 2149.67312,1538.4285 2149.67312,1541.06941 C2149.67312,1545.03078 2163.71196,1618.93314 2190.46013,1646.66766 C2217.20829,1674.40217 2306.12306,1754.9473 2317.81316,1762.57958 C2329.50327,1770.21186 2339.66219,1775.82446 2352.5477,1768.77009 C2365.4332,1761.71573 2419.75299,1718.81557 2429.91766,1704.78033 C2436.69411,1695.42351 2436.69411,1683.52627 2429.91766,1669.08862 C2386.70066,1612.09562 2363.28249,1580.46198 2359.66314,1574.1877 C2354.23413,1564.77628 2332.77608,1539.60243 2329.68099,1504.58448 C2326.5859,1469.56652 2320.95918,1411.28526 2320.95918,1397.99349 C2320.95918,1389.13231 2320.95918,1370.09379 2320.95918,1340.87791 C2320.53016,1332.62328 2318.60417,1327.21306 2315.18122,1324.64724 C2310.04679,1320.7985 2185.27383,1273.64916 2136.59239,1340.87791 C2104.1381,1385.69708 2091.14462,1452.42758 2097.61194,1541.06941 L2144.82289,1541.06941 Z" id="Path-5" fill="url(#linearGradient-1)"></path>
                <path d="M1961.621,1198.91144 C1957.51528,1200.19546 1954.89236,1203.25117 1953.75226,1208.07855 C1952.04211,1215.31961 1942.11674,1259.59594 1936.40843,1336.67372 C1930.70013,1413.75149 1929.57909,1465.24094 1932.72045,1492.06574 C1934.81468,1509.94893 1966.09324,1609.46489 2026.55612,1790.6136 C2028.67083,1800.41914 2037.75222,1806.84822 2053.80029,1809.90081 C2077.87241,1814.47971 2139.22171,1815.18504 2177.64817,1803.60966 C2183.30861,1801.90454 2184.57547,1800.40471 2184.57547,1792.64334 C2184.57547,1746.59723 2178.42505,1692.84295 2161.05433,1640.09947 C2143.68362,1587.35599 2139.00262,1541.66349 2152.92639,1508.76776 C2166.85015,1475.87203 2198.85935,1396.8028 2204.25665,1376.60865 C2209.65395,1356.4145 2240.13249,1342.86627 2274.9183,1336.67372 C2309.7041,1330.48116 2360.8182,1310.44249 2363.90274,1272.04877 C2365.95909,1246.45296 2367.65818,1222.07385 2369,1198.91144 C2366.81413,1192.97048 2363.10907,1190 2357.88484,1190 C2352.66061,1190 2220.57267,1192.97048 1961.621,1198.91144 Z" id="Path-4" fill="#FACA44"></path>
                <path d="M2032.79063,700.228458 C2065.42294,652.140409 2111.1479,636.635407 2169.96553,653.713452 C2205.1348,663.925056 2262.87611,686.9363 2304.33436,738.319787 C2328.20046,767.899504 2350.26221,803.504791 2366.20707,844.241106 C2390.81144,907.100918 2402.51294,968.753939 2405.46426,1048.64735 C2406.75807,1083.67145 2408.47155,1148.11052 2374.24087,1183.20454 C2355.24419,1202.68033 2303.63995,1213.87183 2219.42816,1216.77902 C2087.88547,1217.96381 2005.3007,1214.38433 1971.67383,1206.04059 C1957.96429,1202.63887 1944.11037,1196.61503 1936.8724,1188.34718 C1929.86216,1180.33945 1927.30314,1163.25553 1929.19533,1137.09541 C1928.42241,1135.57463 1927.1974,1135.57463 1925.5203,1137.09541 C1923.00465,1139.37657 1874.67308,1181.79112 1803.94468,1172.20827 C1768.66602,1167.42843 1735.33086,1141.9145 1705.46484,1084.92315 C1690.38492,1056.14713 1679.53607,1025.75401 1667.63962,973.15479 C1659.70865,938.088644 1655.842,902.50159 1656.03966,866.393628 C1655.40681,855.324725 1662.34764,846.129221 1676.86213,838.807115 C1698.63387,827.823957 1742.90275,830.512449 1748.3432,830.896686 C1753.78365,831.280924 1771.61252,839.449891 1773.98513,866.393628 C1776.35775,893.337365 1789.51705,954.96386 1821.47025,946.654911 C1853.42345,938.345961 1848.75959,910.490911 1873.85191,852.305409 C1889.85834,815.18879 1916.03553,777.730449 1945.04461,751.278179 C1961.88016,735.926489 1991.12883,718.909915 2032.79063,700.228458 Z" id="Path-6" fill="#F88640"></path>
                <path d="M2039.22684,558.902379 C2042.55429,543.634126 2047.83025,536 2055.0547,536 C2062.27916,536 2066.19816,539.560615 2066.81172,546.681844 C2070.13138,557.580405 2074.32308,563.029686 2079.3868,563.029686 C2086.98239,563.029686 2085.71997,552.80437 2091.95593,557.917028 C2098.19188,563.029686 2102.37257,568.703025 2111.05769,564.351094 C2119.74281,559.999164 2122.90275,563.609637 2124.73561,571.691794 C2126.56848,579.77395 2133.45834,583.818929 2136.7884,579.83268 C2140.11846,575.846431 2154.80659,566.919123 2165.83174,575.296303 C2176.85689,583.673482 2173.17924,600.824263 2167.94891,608.59075 C2164.46202,613.768407 2157.80725,616.626718 2147.98459,617.165681 C2146.65722,618.414902 2146.44918,619.668404 2147.36049,620.92619 C2148.72746,622.812867 2158.30356,644.896907 2158.30356,651.060727 C2158.30356,657.224547 2166.5358,684.632928 2149.53848,687.078711 C2138.20694,688.709233 2113.45887,689.301935 2075.29429,688.856818 C2065.47511,687.848429 2060.56551,683.401121 2060.56551,675.514894 C2060.56551,667.628667 2061.25449,658.293445 2062.63245,647.509228 L2045.91081,647.509228 C2038.33311,645.663452 2034.54427,641.401538 2034.54427,634.723487 C2034.54427,628.045436 2035.2019,618.060153 2036.51716,604.767639 C2026.17239,606.16615 2021,604.71737 2021,600.421299 C2021,597.259837 2025.78677,588.794274 2032.36719,575.296303 C2033.9416,572.066802 2036.22815,566.602161 2039.22684,558.902379 Z" id="Path-2" fill="#E45A45"></path>
                <path d="M2032.50516,700 C2100.84537,727.25274 2125.12249,782.595842 2105.33653,866.029305 C2085.55056,949.462768 2026.76784,1039.62291 1928.98835,1136.50974 C1928.21601,1134.99021 1926.99193,1134.99021 1925.3161,1136.50974 C1922.80236,1138.78904 1874.50741,1181.16891 1803.83259,1171.59389 C1768.58066,1166.81797 1735.27075,1141.3249 1705.42736,1084.38014 C1690.35886,1055.62765 1679.51824,1025.25939 1667.6308,972.703174 C1659.70584,937.6657 1655.84212,902.107744 1656.03963,866.029305 C1655.40726,854.969452 1662.34283,845.781467 1676.84633,838.465348 C1698.60157,827.49117 1742.83691,830.177464 1748.27324,830.561387 C1753.70957,830.94531 1771.52493,839.107598 1773.89574,866.029305 C1776.26656,892.951011 1789.41589,954.527118 1821.34488,946.224962 C1853.27387,937.922806 1848.61355,910.090532 1873.68686,851.952605 C1889.68116,814.866335 1915.83852,777.438621 1944.82562,751.00798 C1956.83861,740.054451 1971.47153,726.703163 1996.13445,714.053091 C2002.71753,710.676507 2014.8411,705.992143 2032.50516,700 Z" id="Path-6"></path>
                <path d="M1980.1657,1974.16917 L2191.1657,1978.5404 C2195.51847,1978.63058 2199,1982.18498 2199,1986.53869 L2199,1994.83255 C2199,1999.25083 2195.41828,2002.83255 2191,2002.83255 C2190.94476,2002.83255 2190.88953,2002.83198 2190.8343,2002.83083 L1979.8343,1998.4596 C1975.48153,1998.36942 1972,1994.81502 1972,1990.46131 L1972,1982.16745 C1972,1977.74917 1975.58172,1974.16745 1980,1974.16745 C1980.05524,1974.16745 1980.11047,1974.16802 1980.1657,1974.16917 Z" id="Rectangle" fill="#2C6A7E"></path>
                <path d="M2183.23871,1979 L2185,1846.3482 C2183.33255,1836.97286 2178.81183,1832.28518 2171.43783,1832.28518 C2160.37684,1832.28518 2114.09114,1826.68572 2096.39603,1865.11044 C2078.70091,1903.53516 2099.61117,1918.81885 2065.39888,1926.65243 C2050.20364,1930.13168 2016.65981,1929.51756 1997.92139,1942.5515 C1991.66265,1946.90491 1987.35552,1957.59109 1985,1974.61005 L2183.23871,1979 Z" id="Path-11" fill="#46869F"></path>
                <path d="M2076.7805,1864.08491 C2072.67176,1863.57133 2069.91176,1865.38747 2068.50053,1869.53334 C2066.38367,1875.75214 2071.22725,1880.67513 2078.39546,1880.67513 C2083.17427,1880.67513 2092.03286,1881.45009 2104.97125,1883 C2110.32375,1882.98283 2113,1880.28074 2113,1874.89373 C2113,1866.81323 2102.48726,1865.91764 2101.30987,1865.91764 C2100.52494,1865.91764 2092.34849,1865.30673 2076.7805,1864.08491 Z" id="Path-12" fill="#27697B"></path>
                <path d="M2069.97238,1889 C2065.32413,1889.75409 2063,1892.51183 2063,1897.27322 C2063,1904.41531 2068.10278,1906.20533 2071.67977,1906.20533 C2075.25676,1906.20533 2090.48041,1908.1553 2093.98321,1910.64717 C2097.48601,1913.13903 2104.16221,1914.36974 2106.98903,1910.64717 C2109.81585,1906.92459 2109.81585,1901 2106.00634,1898.64817 C2104.24511,1897.56086 2099.37015,1894.20857 2087.71338,1891.46739 C2084.49073,1890.70956 2078.57707,1889.88709 2069.97238,1889 Z" id="Path-13" fill="#27697B"></path>
                <circle id="Oval" fill="#006C7F" cx="2146.5" cy="1935.5" r="25.5"></circle>
                <circle id="Oval" fill="#2C87A2" cx="2147" cy="1936" r="16"></circle>
                <path d="M2427.07463,1951.90928 C2424.30846,1949.88032 2424.30846,1947.06215 2427.07463,1943.45477 C2429.8408,1939.84739 2478.85823,1887.50828 2574.12692,1786.43743 C2576.94945,1784.52086 2579.49581,1784.52086 2581.76599,1786.43743 C2584.03617,1788.354 2587.2748,1791.11818 2591.48189,1794.72998 C2593.50604,1797.54619 2593.50604,1799.82988 2591.48189,1801.58105 C2589.45774,1803.33222 2540.40013,1856.1587 2444.30904,1960.06048 C2441.20861,1962.64651 2438.59633,1962.64651 2436.47221,1960.06048 C2434.34808,1957.47446 2431.21555,1954.75739 2427.07463,1951.90928 Z" id="Path-14" fill="#2C6A7E"></path>
                <path d="M2432.33415,1938 C2421.28235,1928.83918 2417.10063,1916.68367 2419.789,1901.53346 C2422.47736,1886.38325 2430.35424,1871.49021 2443.41962,1856.85435 C2451.16863,1847.86538 2455.62438,1840.85265 2456.78686,1835.81618 C2457.94934,1830.77971 2456.23808,1824.53501 2451.65306,1817.08208 C2441.38967,1806.33205 2435.27667,1799.63339 2433.31406,1796.9861 C2430.37014,1793.01517 2415.68771,1762.48369 2422.72871,1746.52582 C2427.42271,1735.88724 2436.0078,1722.6002 2448.48398,1706.66472 C2457.31177,1699.11176 2465.92047,1699.11176 2474.3101,1706.66472 C2482.69972,1714.21767 2513.92969,1743.1632 2568,1793.50131 L2432.33415,1938 Z" id="Path-15" fill="#46869F"></path>
                <path d="M2438.56795,1830.1127 C2448.45101,1819.8587 2456.0788,1814.18868 2461.45134,1813.10263 C2469.51014,1811.47355 2468.87267,1805.5116 2466.18131,1802.96231 C2464.38708,1801.26278 2462.47212,1799.55859 2460.43645,1797.84972 C2457.1363,1796.54005 2453.75816,1796.74432 2450.30205,1798.46253 C2446.84595,1800.18073 2439.04907,1806.5152 2426.91143,1817.46592 C2423.87949,1820.87831 2423.21563,1824.0356 2424.91984,1826.93779 C2427.47615,1831.29108 2426.62445,1831.21543 2429.87811,1832.62676 C2432.04722,1833.56765 2434.94384,1832.72963 2438.56795,1830.1127 Z" id="Path-16" fill="#006A7D"></path>
                <path d="M2411.69016,1796.55285 C2419.73739,1787.05778 2426.25218,1780.99221 2431.23452,1778.35615 C2438.70804,1774.40206 2439.16052,1776.40353 2441.53698,1777.37984 C2443.91344,1778.35615 2447.74483,1782.03793 2446.87352,1784.70936 C2446.29265,1786.49032 2438.57144,1794.61621 2423.70989,1809.08704 C2418.70732,1811.38405 2415.20427,1811.61244 2413.20074,1809.77222 C2410.19545,1807.01188 2408.43701,1806.85513 2408.03607,1803.34652 C2407.76879,1801.00745 2408.98681,1798.74289 2411.69016,1796.55285 Z" id="Path-17" fill="#006A7D"></path>
                <circle id="Oval" fill="#006C7F" cx="2510.5" cy="1793.5" r="25.5"></circle>
                <circle id="Oval" fill="#2C87A2" cx="2510.5" cy="1793.5" r="16.5"></circle>
                <path d="M1698,449.909389 L1670.99421,434 L1482.0976,488.462155 C1461.95593,493.494562 1451.62269,505.465498 1451.62269,524.008632 L1451.61691,527.514751 C1451.57063,542.896573 1451.24668,574.566352 1450.6451,622.517325 L1450,672.22546 L1476.05253,686 L1698,613.622763 L1698,449.909389 Z M1670.46199,438.212077 L1694.10383,452.139153 L1694.10383,610.790822 L1476.41346,681.779521 L1453.92722,669.891391 L1454.63878,614.714026 C1455.2255,567.278837 1455.51884,537.046153 1455.51884,524.008632 C1455.51884,507.34028 1464.56294,496.862794 1483.10866,492.227952 L1670.46199,438.212077 Z" id="Path-24" fill="#B8C1FF" fill-rule="nonzero"></path>
                <path d="M1694.90549,449 L1696,452.73038 L1624.14619,473.815226 C1560.32153,492.520321 1520.58362,504.086375 1504.92591,508.515272 C1485.10729,514.121112 1476.37733,524.341256 1478.10125,539.49637 L1478.17215,540.079016 L1478.17215,683 L1474.28655,683 L1474.28604,540.316732 L1474.239,539.922434 C1472.30093,522.852563 1482.16681,511.094778 1503.22088,504.960123 L1503.86889,504.774085 L1509.69718,503.114387 C1533.80533,496.214577 1590.32716,479.707809 1679.25247,453.597024 L1694.90549,449 Z" id="Path-25" fill="#B8C1FF" fill-rule="nonzero"></path>
                <path d="M1498.60248,548.836764 C1499.75158,564.628851 1499.21742,589.941627 1497,624.775093 C1498.06832,643.422865 1511.06402,649.782972 1535.9871,643.855414 C1560.91018,637.927856 1601.82081,625.378681 1658.71901,606.207888 C1669.573,599.98713 1675,591.980895 1675,582.189183 C1675,572.397471 1675,548.871248 1675,511.610515 C1673.70935,490.868136 1662.46371,482.725453 1641.26307,487.182467 C1609.46211,493.867988 1535.98114,515.916363 1526.10447,519.299699 C1516.2278,522.683036 1496.87884,525.148635 1498.60248,548.836764 Z" id="Path-26" fill="#B8C1FF"></path>
                <path d="M176.81547,1279.36817 C175.106257,1263.6183 181.878654,1253.15468 197.132661,1247.97733 C220.01367,1240.2113 413.599022,1158.52603 424.478559,1154.62404 C435.358095,1150.72204 443.24447,1148.94312 457.420009,1154.62404 C466.870369,1158.41131 496.415043,1173.04306 546.054031,1198.5193 C560.01801,1204.49407 567,1214.40084 567,1228.2396 C567,1242.07836 565.935309,1261.08906 563.805928,1285.27169 C562.543453,1294.89198 557.697733,1301.43479 549.268768,1304.90015 C540.839802,1308.3655 465.484401,1342.19057 323.202565,1406.37536 C314.275694,1409.09349 305.831969,1408.40091 297.871389,1404.29762 C289.910809,1400.19433 253.541586,1384.07208 188.76372,1355.93088 C178.254573,1350.24455 173,1341.62892 173,1330.08399 C173,1318.53906 174.271823,1301.63378 176.81547,1279.36817 Z" id="Path-27" fill="#1A236A"></path>
                <polygon id="Path-28" fill="#FFFFFF" fill-rule="nonzero" points="553.097401 1216 554 1218.14644 308.3422 1321 191 1271.02239 191.915795 1268.88152 308.349262 1318.47217"></polygon>
                <path d="M551,1291.61922 L551,1227 L312,1329.0961 L312,1395 L551,1291.61922 Z M548.664565,1230.53836 L548.664565,1290.08174 L314.334154,1391.44342 L314.334154,1330.63997 L548.664565,1230.53836 Z" id="Path-29" fill="#FFFFFF" fill-rule="nonzero"></path>
                <polygon id="Path-30" fill="#FFFFFF" fill-rule="nonzero" points="355 1311 355 1377 353 1377 353 1311"></polygon>
                <polygon id="Path-31" fill="#FFFFFF" fill-rule="nonzero" points="408 1290 408 1352 406 1352 406 1290"></polygon>
                <polygon id="Path-32" fill="#FFFFFF" fill-rule="nonzero" points="464 1269 464 1329 462 1329 462 1269"></polygon>
                <polygon id="Path-33" fill="#FFFFFF" fill-rule="nonzero" points="518 1243 518 1305 516 1305 516 1243"></polygon>
                <polygon id="Path-40" fill="#B9C2FA" points="1398 785.019568 1398 708 1518.35822 748.23861 1622.10955 879.628195 1624 1033 1614.78795 1029.57717 1614.78795 896.005241"></polygon>
            </g>
        </g>
    </g>
</svg>